<?xml version="1.0" encoding="UTF-8"?><svg id="Logos" xmlns="http://www.w3.org/2000/svg" viewBox="0 0 68.47 66.46"><defs><style>.cls-1{fill:#ff4438;fill-rule:evenodd;}</style></defs><path class="cls-1" d="M19.84,53.56c0-8.42,7.29-15.15,15.9-14.2,6.4,.7,11.68,5.83,12.54,12.2,.84,6.17-2.27,11.71-7.15,14.46-.22,.12-.14,.44,.11,.44h27.23s0,0,0,0L34.56,.2c-.13-.26-.51-.26-.64,0L0,66.46s0,0,0,0H27.03c.25,0,.32-.32,.11-.44-4.35-2.45-7.29-7.12-7.29-12.46"/><path class="cls-1" d="M65.64,11.21c0,5.52-4.48,10-10,10s-10.01-4.48-10.01-10S50.11,1.2,55.64,1.2s10,4.48,10,10.01"/></svg>